<svg width="706" height="80" viewBox="0 0 706 90" fill="none" xmlns="http://www.w3.org/2000/svg">
<rect x="42" y="73" width="39" height="8" fill="#E30B13"/>
<path fill-rule="evenodd" clip-rule="evenodd" d="M81 40.5C81 62.8675 62.8675 81 40.5 81C18.1325 81 0 62.8675 0 40.5C0 18.1325 18.1325 0 40.5 0C62.8675 0 81 18.1325 81 40.5ZM49.0701 49.3284C52.2923 47.4972 56.5061 48.7008 58.2101 49.5315C58.3669 49.791 58.6851 50.0937 59.0749 50.4646C60.6975 52.0082 63.5612 54.7327 61.188 60.4333C58.2447 67.5036 52.5988 67.1139 50.4472 66.5375C48.2956 65.9612 43.7169 61.3666 43.4415 57.9248C43.1661 54.483 45.0423 51.6175 49.0701 49.3284ZM42.6013 38.0578C42.1684 37.8391 41.1012 37.5163 40.2951 37.9744C39.2875 38.5471 38.8247 39.2747 38.9067 40.1574C38.9887 41.0401 40.1603 42.2329 40.7051 42.3879C41.2499 42.5429 42.6754 42.6621 43.3921 40.8609C43.9699 39.4085 43.2377 38.7008 42.8228 38.2997L42.8228 38.2997C42.7231 38.2034 42.6417 38.1248 42.6013 38.0578ZM15.6992 24.152C18.9215 22.3207 23.1352 23.5243 24.8393 24.355C24.996 24.6145 25.3142 24.9172 25.704 25.2881C27.3266 26.8317 30.1904 29.5562 27.8172 35.2569C24.8738 42.3271 19.228 41.9374 17.0764 41.3611C14.9247 40.7847 10.3461 36.1901 10.0707 32.7483C9.79524 29.3065 11.6714 26.441 15.6992 24.152ZM47.0865 9.96845C45.3824 9.13774 41.1687 7.93413 37.9465 9.76539C33.9186 12.0545 32.0425 14.9199 32.3179 18.3617C32.5933 21.8036 37.172 26.3981 39.3236 26.9745C41.4752 27.5509 47.121 27.9406 50.0644 20.8703C52.4376 15.1696 49.5739 12.4452 47.9513 10.9015C47.5614 10.5306 47.2432 10.2279 47.0865 9.96845ZM60.1937 24.152C63.4159 22.3207 67.6297 23.5243 69.3337 24.355C69.4905 24.6145 69.8087 24.9172 70.1985 25.2881C71.8211 26.8317 74.6848 29.5562 72.3116 35.2569C69.3683 42.3271 63.7224 41.9374 61.5708 41.3611C59.4192 40.7847 54.8405 36.1901 54.5651 32.7483C54.2897 29.3065 56.1659 26.441 60.1937 24.152ZM32.255 49.5315C30.5509 48.7008 26.3372 47.4972 23.1149 49.3284C19.0871 51.6175 17.2109 54.483 17.4864 57.9248C17.7618 61.3666 22.3405 65.9612 24.4921 66.5375C26.6437 67.1139 32.2895 67.5036 35.2329 60.4333C37.6061 54.7327 34.7423 52.0082 33.1197 50.4646C32.7299 50.0937 32.4117 49.791 32.255 49.5315Z" fill="#E30B13"/>
<path d="M644.142 73.82C641.409 73.82 638.894 73.246 636.598 72.098C634.357 70.95 632.525 69.4193 631.104 67.506C629.737 65.538 628.972 63.324 628.808 60.864V45.038C628.972 42.578 629.765 40.4187 631.186 38.56C632.607 36.6467 634.439 35.1433 636.68 34.05C638.921 32.9567 641.409 32.41 644.142 32.41C647.914 32.41 651.249 33.312 654.146 35.116C657.043 36.92 659.312 39.38 660.952 42.496C662.647 45.612 663.494 49.1653 663.494 53.156C663.494 57.092 662.647 60.618 660.952 63.734C659.312 66.85 657.043 69.31 654.146 71.114C651.249 72.918 647.914 73.82 644.142 73.82ZM642.092 62.996C643.896 62.996 645.481 62.586 646.848 61.766C648.269 60.8913 649.363 59.716 650.128 58.24C650.948 56.764 651.358 55.0693 651.358 53.156C651.358 51.188 650.948 49.466 650.128 47.99C649.363 46.514 648.269 45.366 646.848 44.546C645.481 43.6713 643.869 43.234 642.01 43.234C640.206 43.234 638.593 43.6713 637.172 44.546C635.751 45.366 634.657 46.514 633.892 47.99C633.127 49.466 632.744 51.188 632.744 53.156C632.744 55.0693 633.127 56.764 633.892 58.24C634.712 59.716 635.805 60.8913 637.172 61.766C638.593 62.586 640.233 62.996 642.092 62.996ZM621.51 73V13.55H633.482V42.988L631.432 52.664L633.318 62.34V73H621.51ZM679.658 73.246L663.176 33.23H676.05L686.71 64.554H682.036L692.942 33.23H705.898L688.596 73.246H679.658ZM669.162 89.728L681.134 64.062L688.596 73.246L681.544 89.728H669.162Z" fill="white"/>
<path d="M118.172 73L99.558 15.19H111.694L125.388 59.716H120.796L134.244 15.19H143.674L157.122 59.716H152.53L166.224 15.19H178.36L159.746 73H150.234L136.786 28.556H141.132L127.684 73H118.172ZM194.151 73.82C190.488 73.82 187.208 72.918 184.311 71.114C181.468 69.31 179.199 66.85 177.505 63.734C175.865 60.618 175.045 57.092 175.045 53.156C175.045 49.1653 175.865 45.612 177.505 42.496C179.199 39.38 181.468 36.92 184.311 35.116C187.208 33.312 190.488 32.41 194.151 32.41C196.884 32.41 199.344 32.9567 201.531 34.05C203.717 35.1433 205.467 36.6467 206.779 38.56C208.145 40.4187 208.911 42.578 209.075 45.038V61.192C208.911 63.652 208.145 65.8387 206.779 67.752C205.467 69.6107 203.717 71.0867 201.531 72.18C199.344 73.2733 196.884 73.82 194.151 73.82ZM196.529 62.996C199.317 62.996 201.558 62.0667 203.253 60.208C204.947 58.3493 205.795 55.9987 205.795 53.156C205.795 51.188 205.412 49.466 204.647 47.99C203.881 46.514 202.788 45.366 201.367 44.546C200 43.6713 198.387 43.234 196.529 43.234C194.725 43.234 193.112 43.6713 191.691 44.546C190.324 45.366 189.231 46.514 188.411 47.99C187.591 49.466 187.181 51.188 187.181 53.156C187.181 55.0693 187.563 56.764 188.329 58.24C189.149 59.716 190.269 60.8913 191.691 61.766C193.112 62.586 194.725 62.996 196.529 62.996ZM205.303 73V62.34L207.107 52.664L205.303 42.988V33.23H217.029V73H205.303ZM230.132 73V16.748H242.104V73H230.132ZM221.03 43.48V33.23H251.124V43.48H221.03ZM273.409 73.902C269.309 73.902 265.619 73 262.339 71.196C259.059 69.392 256.462 66.932 254.549 63.816C252.636 60.6453 251.679 57.092 251.679 53.156C251.679 49.1653 252.636 45.612 254.549 42.496C256.462 39.38 259.059 36.92 262.339 35.116C265.674 33.2573 269.391 32.328 273.491 32.328C276.607 32.328 279.45 32.8747 282.019 33.968C284.643 35.0613 286.966 36.674 288.989 38.806L281.363 46.514C280.379 45.4207 279.231 44.628 277.919 44.136C276.607 43.5893 275.131 43.316 273.491 43.316C271.632 43.316 269.965 43.726 268.489 44.546C267.068 45.366 265.947 46.514 265.127 47.99C264.307 49.4113 263.897 51.106 263.897 53.074C263.897 54.9873 264.307 56.7093 265.127 58.24C265.947 59.716 267.095 60.864 268.571 61.684C270.047 62.504 271.687 62.914 273.491 62.914C275.186 62.914 276.689 62.6407 278.001 62.094C279.368 61.4927 280.543 60.6453 281.527 59.552L289.153 67.178C287.076 69.3647 284.725 71.032 282.101 72.18C279.477 73.328 276.58 73.902 273.409 73.902ZM319.668 73V50.286C319.668 48.0993 318.985 46.35 317.618 45.038C316.252 43.6713 314.53 42.988 312.452 42.988C311.031 42.988 309.746 43.2887 308.598 43.89C307.505 44.4913 306.658 45.366 306.056 46.514C305.455 47.6073 305.154 48.8647 305.154 50.286L300.48 47.99C300.48 44.874 301.136 42.168 302.448 39.872C303.815 37.5213 305.646 35.69 307.942 34.378C310.293 33.066 312.999 32.41 316.06 32.41C319.122 32.41 321.828 33.066 324.178 34.378C326.529 35.69 328.333 37.494 329.59 39.79C330.902 42.0313 331.558 44.6553 331.558 47.662V73H319.668ZM293.182 73V13.55H305.154V73H293.182ZM352.283 73V33.23H364.255V73H352.283ZM377.949 73V49.712C377.949 47.58 377.293 45.94 375.981 44.792C374.669 43.5893 373.057 42.988 371.143 42.988C369.831 42.988 368.656 43.2613 367.617 43.808C366.579 44.3547 365.759 45.12 365.157 46.104C364.556 47.088 364.255 48.2907 364.255 49.712L359.581 47.58C359.581 44.464 360.265 41.7853 361.631 39.544C362.998 37.248 364.857 35.4987 367.207 34.296C369.558 33.0387 372.182 32.41 375.079 32.41C377.867 32.41 380.355 33.0387 382.541 34.296C384.783 35.5533 386.559 37.3027 387.871 39.544C389.183 41.7853 389.839 44.464 389.839 47.58V73H377.949ZM403.533 73V49.712C403.533 47.58 402.877 45.94 401.565 44.792C400.253 43.5893 398.641 42.988 396.727 42.988C395.415 42.988 394.24 43.2613 393.201 43.808C392.163 44.3547 391.343 45.12 390.741 46.104C390.14 47.088 389.839 48.2907 389.839 49.712L382.951 48.564C383.115 45.2293 383.935 42.3593 385.411 39.954C386.942 37.5487 388.937 35.69 391.397 34.378C393.857 33.066 396.618 32.41 399.679 32.41C402.686 32.41 405.365 33.066 407.715 34.378C410.121 35.6353 412.007 37.4393 413.373 39.79C414.795 42.086 415.505 44.874 415.505 48.154V73H403.533ZM441.097 73.902C436.997 73.902 433.307 73 430.027 71.196C426.802 69.3373 424.232 66.8227 422.319 63.652C420.406 60.4813 419.449 56.9553 419.449 53.074C419.449 49.138 420.378 45.612 422.237 42.496C424.15 39.38 426.747 36.92 430.027 35.116C433.307 33.2573 436.97 32.328 441.015 32.328C445.17 32.328 448.86 33.2573 452.085 35.116C455.365 36.92 457.934 39.38 459.793 42.496C461.706 45.612 462.663 49.138 462.663 53.074C462.663 56.9553 461.706 60.4813 459.793 63.652C457.934 66.8227 455.365 69.3373 452.085 71.196C448.86 73 445.197 73.902 441.097 73.902ZM441.015 62.914C442.928 62.914 444.596 62.504 446.017 61.684C447.438 60.864 448.532 59.716 449.297 58.24C450.117 56.7093 450.527 54.9873 450.527 53.074C450.527 51.1607 450.117 49.466 449.297 47.99C448.477 46.514 447.356 45.366 445.935 44.546C444.568 43.726 442.928 43.316 441.015 43.316C439.211 43.316 437.598 43.726 436.177 44.546C434.756 45.366 433.635 46.514 432.815 47.99C432.05 49.466 431.667 51.1607 431.667 53.074C431.667 54.9873 432.05 56.7093 432.815 58.24C433.635 59.716 434.756 60.864 436.177 61.684C437.598 62.504 439.211 62.914 441.015 62.914ZM478.946 73L461.89 33.23H474.846L486.654 66.276H480.832L492.722 33.23H505.35L488.294 73H478.946ZM508.32 73V33.23H520.292V73H508.32ZM514.306 27.408C512.448 27.408 510.89 26.7793 509.632 25.522C508.43 24.2647 507.828 22.7067 507.828 20.848C507.828 18.9347 508.43 17.3493 509.632 16.092C510.89 14.8347 512.448 14.206 514.306 14.206C516.22 14.206 517.778 14.8347 518.98 16.092C520.238 17.3493 520.866 18.9347 520.866 20.848C520.866 22.7067 520.238 24.2647 518.98 25.522C517.778 26.7793 516.22 27.408 514.306 27.408ZM547.095 73.902C542.831 73.902 539.031 73.0273 535.697 71.278C532.417 69.474 529.82 67.014 527.907 63.898C525.993 60.7273 525.037 57.1467 525.037 53.156C525.037 49.1653 525.966 45.612 527.825 42.496C529.683 39.38 532.225 36.92 535.451 35.116C538.676 33.2573 542.284 32.328 546.275 32.328C550.156 32.328 553.573 33.2027 556.525 34.952C559.531 36.6467 561.882 38.9973 563.577 42.004C565.271 44.956 566.119 48.3727 566.119 52.254C566.119 52.9647 566.064 53.7027 565.955 54.468C565.9 55.2333 565.791 56.108 565.627 57.092L531.597 57.174V48.81L560.379 48.728L555.295 52.254C555.24 49.9033 554.857 47.9627 554.147 46.432C553.491 44.9013 552.507 43.726 551.195 42.906C549.883 42.086 548.243 41.676 546.275 41.676C544.252 41.676 542.503 42.1407 541.027 43.07C539.551 43.9993 538.403 45.3113 537.583 47.006C536.763 48.646 536.353 50.6413 536.353 52.992C536.353 55.3973 536.79 57.4473 537.665 59.142C538.539 60.8367 539.769 62.1487 541.355 63.078C542.94 63.9527 544.826 64.39 547.013 64.39C548.981 64.39 550.757 64.062 552.343 63.406C553.983 62.75 555.404 61.7387 556.607 60.372L563.331 67.014C561.363 69.31 558.985 71.032 556.197 72.18C553.409 73.328 550.375 73.902 547.095 73.902ZM584.89 73.984C582.594 73.984 580.326 73.6833 578.084 73.082C575.843 72.4807 573.766 71.6333 571.852 70.54C569.994 69.4467 568.408 68.1347 567.096 66.604L573.902 59.634C575.269 61.11 576.854 62.258 578.658 63.078C580.462 63.8433 582.43 64.226 584.562 64.226C586.148 64.226 587.35 64.0073 588.17 63.57C588.99 63.078 589.4 62.3947 589.4 61.52C589.4 60.536 588.908 59.7707 587.924 59.224C586.995 58.6773 585.792 58.2127 584.316 57.83C582.84 57.3927 581.255 56.928 579.56 56.436C577.92 55.8893 576.335 55.206 574.804 54.386C573.328 53.5113 572.126 52.3087 571.196 50.778C570.267 49.2473 569.802 47.252 569.802 44.792C569.802 42.2773 570.431 40.0907 571.688 38.232C573 36.3187 574.832 34.8427 577.182 33.804C579.588 32.7107 582.376 32.164 585.546 32.164C588.881 32.164 591.942 32.738 594.73 33.886C597.573 35.034 599.869 36.7833 601.618 39.134L594.73 46.104C593.528 44.628 592.134 43.5893 590.548 42.988C589.018 42.332 587.46 42.004 585.874 42.004C584.398 42.004 583.278 42.2227 582.512 42.66C581.802 43.0973 581.446 43.6987 581.446 44.464C581.446 45.3933 581.911 46.104 582.84 46.596C583.77 47.088 584.972 47.5527 586.448 47.99C587.979 48.3727 589.564 48.8373 591.204 49.384C592.844 49.876 594.402 50.5867 595.878 51.516C597.354 52.4453 598.557 53.7027 599.486 55.288C600.47 56.8187 600.962 58.814 600.962 61.274C600.962 65.1553 599.514 68.244 596.616 70.54C593.719 72.836 589.81 73.984 584.89 73.984Z" fill="white"/>
<circle cx="610" cy="67" r="6" fill="#E30B13"/>
</svg>




